<svg xmlns="http://www.w3.org/2000/svg" xmlns:xlink="http://www.w3.org/1999/xlink" width="258.138" height="68.518"><switch><g><defs><path id="a" d="M33.332 55.23l1.844 8.194 4.137-.998-1.819-8.089c-1.347.304-2.73.604-4.162.893m-3.867-17.762l2.575 11.447c3.523-.796 14.743-2.55 13.288-9.005-.707-3.144-3.443-4.058-6.518-4.058-3.512.001-7.465 1.193-9.345 1.616m-3.516-15.622l2.336 10.382c2.936-.661 12.31-2.051 10.99-7.924-.662-2.942-3.086-3.778-5.752-3.778-2.883 0-6.049.977-7.574 1.32M11.411 2.992l-.447 3.121-3.747.065a3.538 3.538 0 00-3.476 3.599l.197 11.139-.669.163A3.539 3.539 0 00.662 25.35l3.615 14.98.195 11.016a3.538 3.538 0 003.303 3.469l2.645 10.948a3.537 3.537 0 004.269 2.609l15.31-3.697-1.884-8.366c-1.218.267-2.463.524-3.723.806l-6.766 1.522-.364-6.442s3.859-.806 3.78-.849c1.472-.334 1.624-1.479 1.566-2.163L19.542 35.55c.19-.045.374-.085.549-.125-.222.02-.412.056-.559.088l-2.191-9.73c-.436-1.014-1.397-2.081-3.503-1.607.048-.085-3.775.851-3.775.851l-1.252-5.551 7.173-1.612.008.025c1.077-.242 2.178-.512 3.298-.789l-1.919-8.54 5.198-1.17 1.883 8.373c1.383-.339 2.772-.681 4.14-.988l-1.872-8.32 5.2-1.17 1.921 8.543c6.846-.923 12.627-.055 14.604 5.971 1.454 4.408.179 7.537-2.49 9.75 5.232.075 9.004 2.326 9.877 9.075 1.088 8.381-4.536 11.958-13.163 14.426l1.826 8.127 20.474-4.945 22.625 3.235a3.535 3.535 0 004.005-2.999l.988-6.918a3.534 3.534 0 002.358-4.197l-1.103-4.57 3.645-25.472a3.534 3.534 0 00-3.002-4.002l-3.757-.539-.045-2.521a3.54 3.54 0 00-3.6-3.476l-1.931.035a3.537 3.537 0 00-4.235-2.48L69.51 5.083l-16.487.289L15.413-.01a3.536 3.536 0 00-4.002 3.002"/></defs><clipPath id="b"><use xlink:href="#a" overflow="visible"/></clipPath><linearGradient id="c" gradientUnits="userSpaceOnUse" x1="-634.734" y1="4985.973" x2="-633.734" y2="4985.973" gradientTransform="scale(89.1112 -89.1112) rotate(-60 -4635.138 1943.08)"><stop offset="0" stop-color="#acdcb4"/><stop offset=".176" stop-color="#a3d8b4"/><stop offset=".468" stop-color="#89ceb4"/><stop offset=".837" stop-color="#61beb5"/><stop offset=".994" stop-color="#4db6b5"/><stop offset="1" stop-color="#4db6b5"/></linearGradient><path clip-path="url(#b)" fill="url(#c)" d="M73.374-42.292l54.215 93.904-102.996 59.465-54.215-93.904z"/><g fill="#4db6b5"><path d="M120.351 26.314h6.441c2.935 0 5.065.417 6.391 1.253 1.326.835 1.99 2.164 1.99 3.985 0 1.236-.291 2.251-.871 3.044-.58.792-1.352 1.27-2.314 1.43v.142c1.312.292 2.258.84 2.838 1.642s.871 1.869.871 3.199c0 1.889-.682 3.36-2.046 4.418-1.364 1.057-3.216 1.585-5.556 1.585h-7.744V26.314zm4.389 8.197h2.548c1.188 0 2.05-.185 2.583-.552.533-.368.801-.977.801-1.826 0-.792-.291-1.361-.871-1.706-.58-.345-1.498-.517-2.754-.517h-2.307v4.601zm0 3.483v5.394h2.859c1.208 0 2.1-.231 2.676-.693.575-.463.863-1.17.863-2.124 0-1.718-1.227-2.576-3.681-2.576h-2.717zM139.831 47.011V26.314h4.388v20.697h-4.388zM157.413 47.011h-4.388V29.967h-5.621v-3.652h15.629v3.652h-5.62v17.044z"/></g><g fill="#acdcb4"><path d="M166.216 26.314h6.441c2.936 0 5.066.417 6.392 1.253 1.326.835 1.989 2.164 1.989 3.985 0 1.236-.291 2.251-.871 3.044-.58.792-1.352 1.27-2.314 1.43v.142c1.313.292 2.258.84 2.838 1.642.581.802.871 1.869.871 3.199 0 1.889-.682 3.36-2.045 4.418-1.364 1.057-3.217 1.585-5.557 1.585h-7.744V26.314zm4.389 8.197h2.549c1.188 0 2.05-.185 2.583-.552.533-.368.8-.977.8-1.826 0-.792-.29-1.361-.871-1.706-.58-.345-1.498-.517-2.753-.517h-2.308v4.601zm0 3.483v5.394h2.859c1.209 0 2.1-.231 2.676-.693.576-.463.863-1.17.863-2.124 0-1.718-1.227-2.576-3.68-2.576h-2.718zM202.542 26.314v13.392c0 1.528-.342 2.869-1.026 4.021s-1.673 2.033-2.966 2.647c-1.293.613-2.822.92-4.587.92-2.661 0-4.728-.682-6.2-2.046-1.473-1.363-2.209-3.229-2.209-5.599V26.314h4.375v12.67c0 1.595.32 2.766.963 3.511.641.745 1.703 1.118 3.185 1.118 1.435 0 2.476-.375 3.122-1.125.646-.751.969-1.928.969-3.532V26.314h4.374zM216.402 29.669c-1.652 0-2.931.621-3.837 1.861-.906 1.241-1.358 2.971-1.358 5.188 0 4.615 1.73 6.923 5.195 6.923 1.453 0 3.213-.363 5.279-1.09v3.681c-1.698.707-3.596 1.062-5.69 1.062-3.011 0-5.313-.913-6.908-2.739s-2.393-4.447-2.393-7.864c0-2.151.392-4.037 1.175-5.655.783-1.618 1.908-2.859 3.377-3.723 1.467-.864 3.188-1.295 5.16-1.295 2.01 0 4.029.486 6.059 1.458l-1.416 3.567c-.773-.368-1.553-.688-2.336-.962s-1.553-.412-2.307-.412zM242.732 47.011h-4.982l-5.422-8.721-1.855 1.331v7.39h-4.388V26.314h4.388v9.471l1.728-2.435 5.606-7.036h4.869l-7.219 9.159 7.275 11.538zM257.554 41.264c0 1.868-.672 3.341-2.018 4.416-1.345 1.076-3.216 1.614-5.613 1.614-2.208 0-4.162-.415-5.86-1.246v-4.077c1.397.623 2.579 1.063 3.546 1.316.968.256 1.853.383 2.654.383.963 0 1.701-.184 2.216-.553.515-.367.771-.915.771-1.642 0-.405-.113-.767-.339-1.083-.227-.316-.561-.62-.998-.913-.439-.292-1.334-.76-2.684-1.401-1.265-.595-2.213-1.166-2.846-1.713a6.428 6.428 0 01-1.514-1.911c-.378-.727-.566-1.576-.566-2.548 0-1.831.62-3.27 1.861-4.318 1.24-1.047 2.956-1.571 5.146-1.571 1.076 0 2.103.127 3.079.382s1.998.614 3.064 1.076l-1.415 3.412c-1.104-.453-2.017-.77-2.739-.949s-1.432-.269-2.131-.269c-.83 0-1.467.193-1.91.581-.444.387-.666.892-.666 1.515 0 .387.09.724.27 1.012.179.288.465.566.855.835.393.27 1.319.753 2.782 1.451 1.935.925 3.261 1.853 3.978 2.782s1.077 2.07 1.077 3.419z"/></g></g></switch></svg>